 <svg version="1.1" xmlns="http://www.w3.org/2000/svg" xmlns:xlink="http://www.w3.org/1999/xlink" xmlns:a="http://ns.adobe.com/AdobeSVGViewerExtensions/3.0/"
          x="0px" y="0px" viewBox="0 0 100 100" style="enable-background:new 0 0 280 200;" xml:space="preserve">
          <style type="text/css">
            .st0 {
              fill: #6C6966;
            }

            .st1 {
              fill-rule: evenodd;
              clip-rule: evenodd;
              fill: #B3B3B3;
            }

            .st2 {
              fill-rule: evenodd;
              clip-rule: evenodd;
              fill: #6C6966;
            }
          </style>
          <path class="st0" d="M6.9,77.9c-1.3,0-2.5-0.3-3.5-0.8c-1-0.6-1.9-1.3-2.5-2.3c-0.6-1-0.9-2.1-0.9-3.4C0,70.1,0.3,69,0.9,68
                  c0.6-1,1.4-1.8,2.5-2.3c1-0.6,2.2-0.8,3.5-0.8c1.1,0,2.1,0.2,3,0.6c0.9,0.4,1.6,0.9,2.2,1.7l-1.9,1.7c-0.9-1-1.9-1.5-3.2-1.5
                  c-0.8,0-1.5,0.2-2.1,0.5c-0.6,0.3-1.1,0.8-1.4,1.4C3.2,69.9,3,70.6,3,71.4c0,0.8,0.2,1.5,0.5,2.1c0.3,0.6,0.8,1.1,1.4,1.4
                  c0.6,0.3,1.3,0.5,2.1,0.5c1.3,0,2.3-0.5,3.2-1.5l1.9,1.7c-0.6,0.7-1.4,1.3-2.3,1.7C9,77.7,8,77.9,6.9,77.9L6.9,77.9z M23.7,67.4
                  h-4.1v10.3h-2.9V67.4h-4.1V65h11V67.4L23.7,67.4z M31.4,77.9c-1.3,0-2.5-0.3-3.6-0.9c-1.1-0.6-1.9-1.4-2.5-2.4
                  c-0.6-1-0.9-2.1-0.9-3.4s0.3-2.4,0.9-3.4c0.6-1,1.4-1.8,2.5-2.4c1.1-0.6,2.3-0.9,3.6-0.9c1.3,0,2.5,0.3,3.6,0.9
                  c1.1,0.6,1.9,1.4,2.5,2.4c0.6,1,0.9,2.1,0.9,3.4s-0.3,2.4-0.9,3.4c-0.6,1-1.4,1.8-2.5,2.4C33.9,77.7,32.7,77.9,31.4,77.9L31.4,77.9
                  z M31.4,75.4c0.8,0,1.4-0.2,2-0.5c0.6-0.3,1.1-0.8,1.4-1.4c0.3-0.6,0.5-1.3,0.5-2.1c0-0.8-0.2-1.5-0.5-2.1s-0.8-1.1-1.4-1.4
                  c-0.6-0.3-1.3-0.5-2-0.5c-0.8,0-1.4,0.2-2,0.5c-0.6,0.3-1.1,0.8-1.4,1.4c-0.3,0.6-0.5,1.3-0.5,2.1c0,0.8,0.2,1.5,0.5,2.1
                  c0.3,0.6,0.8,1.1,1.4,1.4C30,75.3,30.7,75.4,31.4,75.4L31.4,75.4z M51.6,65v12.7h-2.9V67.4h-4.4l-0.1,2.7c-0.1,1.8-0.2,3.3-0.4,4.4
                  c-0.2,1.1-0.6,2-1.2,2.6c-0.5,0.6-1.3,0.9-2.3,0.9c-0.4,0-0.9-0.1-1.5-0.2l0.2-2.5c0.2,0,0.3,0.1,0.5,0.1c0.7,0,1.2-0.4,1.5-1.2
                  c0.3-0.8,0.5-2.1,0.5-3.9l0.2-5.2H51.6L51.6,65z M54.8,65h2.9v12.7h-2.9V65L54.8,65z M70.6,67.4h-4.1v10.3h-2.9V67.4h-4.1V65h11
                  V67.4L70.6,67.4z M82.4,67.4h-4.1v10.3h-2.9V67.4h-4.1V65h11V67.4L82.4,67.4z M93.8,65v12.7h-2.9v-3.4h-2.7L86,77.7h-3.1l2.7-3.8
                  c-0.9-0.4-1.5-0.9-2-1.6c-0.5-0.7-0.7-1.6-0.7-2.6c0-1,0.2-1.8,0.7-2.5s1.1-1.3,1.9-1.6c0.8-0.4,1.8-0.6,2.9-0.6H93.8L93.8,65z
                  M88.4,67.4c-0.8,0-1.5,0.2-1.9,0.6c-0.4,0.4-0.7,1-0.7,1.7c0,0.7,0.2,1.3,0.6,1.7c0.4,0.4,1,0.6,1.9,0.6h2.6v-4.6H88.4L88.4,67.4z
                  " />
          <path class="st1" d="M56.9,45.2l27.4-27.4c2.1-2.1,5.4-2.1,7.5,0l0,0c2.1,2.1,2.1,5.4,0,7.5L64.3,52.7c-2.1,2.1-5.4,2.1-7.5,0l0,0
                  C54.8,50.6,54.8,47.3,56.9,45.2L56.9,45.2z" />
          <path class="st1" d="M29.4,45.2l27.4-27.4c2.1-2.1,5.4-2.1,7.5,0l0,0c2.1,2.1,2.1,5.4,0,7.5L36.8,52.7c-2.1,2.1-5.4,2.1-7.5,0l0,0
                  C27.3,50.6,27.3,47.3,29.4,45.2L29.4,45.2z" />
          <path class="st1" d="M2.1,45.2l27.4-27.4c2.1-2.1,5.4-2.1,7.5,0l0,0c2.1,2.1,2.1,5.4,0,7.5L9.6,52.7c-2.1,2.1-5.4,2.1-7.5,0l0,0
                  C0.1,50.6,0.1,47.3,2.1,45.2L2.1,45.2z" />
          <path class="st2" d="M64.3,45.2L36.9,17.8c-2.1-2.1-5.4-2.1-7.5,0l0,0c-2.1,2.1-2.1,5.4,0,7.5l27.4,27.4c2.1,2.1,5.4,2.1,7.5,0l0,0
                  C66.3,50.6,66.3,47.3,64.3,45.2L64.3,45.2z" />
          <path class="st2" d="M37,45.2L9.6,17.8c-2.1-2.1-5.4-2.1-7.5,0l0,0c-2.1,2.1-2.1,5.4,0,7.5l27.4,27.4c2.1,2.1,5.4,2.1,7.5,0l0,0
                  C39,50.6,39,47.3,37,45.2L37,45.2z" />
          <path class="st0" d="M6.9,81.6v6.8H5.3v-5.5H2.2v5.5H0.7v-6.8H6.9L6.9,81.6z M14.6,81.6v6.8h-1.6v-5.5h-2.3l0,1.4
                c0,1-0.1,1.8-0.2,2.4s-0.3,1.1-0.6,1.4c-0.3,0.3-0.7,0.5-1.2,0.5c-0.2,0-0.5,0-0.8-0.1l0.1-1.3c0.1,0,0.2,0,0.3,0
                c0.4,0,0.6-0.2,0.8-0.7c0.1-0.4,0.2-1.1,0.3-2.1l0.1-2.8H14.6L14.6,81.6z M22.3,81.5c0.7,0,1.3,0.2,1.8,0.5c0.5,0.3,1,0.7,1.3,1.3
                c0.3,0.5,0.5,1.1,0.5,1.8c0,0.7-0.2,1.3-0.5,1.8s-0.7,1-1.3,1.3c-0.5,0.3-1.2,0.5-1.8,0.5c-0.6,0-1.2-0.1-1.7-0.4
                c-0.5-0.2-0.9-0.6-1.3-1c-0.3-0.4-0.5-0.9-0.6-1.5h-0.9v2.8h-1.6v-6.8h1.6v2.7h0.9c0.1-0.5,0.3-1,0.6-1.5c0.3-0.4,0.7-0.8,1.2-1
                C21.2,81.6,21.7,81.5,22.3,81.5L22.3,81.5z M22.3,87.2c0.4,0,0.7-0.1,1-0.3c0.3-0.2,0.5-0.4,0.7-0.8s0.3-0.7,0.3-1.1
                c0-0.4-0.1-0.8-0.3-1.1s-0.4-0.6-0.7-0.8c-0.3-0.2-0.6-0.3-1-0.3c-0.4,0-0.7,0.1-1,0.3c-0.3,0.2-0.5,0.4-0.7,0.8
                c-0.2,0.3-0.3,0.7-0.3,1.1c0,0.4,0.1,0.8,0.3,1.1c0.2,0.3,0.4,0.6,0.7,0.8C21.6,87.1,22,87.2,22.3,87.2L22.3,87.2z M30.4,88.6
                c-0.7,0-1.3-0.2-1.9-0.5c-0.6-0.3-1-0.7-1.3-1.3c-0.3-0.5-0.5-1.1-0.5-1.8c0-0.7,0.2-1.3,0.5-1.8c0.3-0.5,0.8-1,1.3-1.3
                c0.6-0.3,1.2-0.5,1.9-0.5c0.6,0,1.1,0.1,1.6,0.3c0.5,0.2,0.9,0.5,1.2,0.9l-1,0.9c-0.5-0.5-1-0.8-1.7-0.8c-0.4,0-0.8,0.1-1.1,0.3
                c-0.3,0.2-0.6,0.4-0.8,0.8c-0.2,0.3-0.3,0.7-0.3,1.1c0,0.4,0.1,0.8,0.3,1.1c0.2,0.3,0.4,0.6,0.8,0.8c0.3,0.2,0.7,0.3,1.1,0.3
                c0.7,0,1.3-0.3,1.7-0.8l1,0.9c-0.3,0.4-0.7,0.7-1.2,0.9C31.5,88.5,31,88.6,30.4,88.6L30.4,88.6z" />
        </svg>