<svg version="1.1" xmlns="http://www.w3.org/2000/svg" xmlns:xlink="http://www.w3.org/1999/xlink" xmlns:a="http://ns.adobe.com/AdobeSVGViewerExtensions/3.0/"
            x="0px" y="0px" viewBox="0 0 80 100" style="enable-background:new 0 0 280 200;"
            xml:space="preserve">
          <style type="text/css">
            .st0{fill:#6C6966;}
            .st1{fill-rule:evenodd;clip-rule:evenodd;fill:#B3B3B3;}
            .st2{fill-rule:evenodd;clip-rule:evenodd;fill:#6C6966;}
          </style>
          <defs>
          </defs>
            <path class="st2" d="M267.9,0c11.2,4.1,19.3,14.9,19.3,27.5c0,8-3.2,15.3-8.5,20.6l-19.2-15.3c0,0,0,0,0,0c-1.1-0.8-2.2-0.8-3.3,0
                c0,0,0,0,0,0l-0.4,0.3c0.4,0.2,0.9,0.2,1.4,0.2c0.6-0.3,1.2-0.1,1.7,0.2l3.7,2.9l-3.4-2.7c-0.3,0.2-1.1,0.4-1.1,0.4
                c-0.7,0.1-1.4,0.1-2.1,0v0c-0.2,0-0.3-0.1-0.5-0.1l0,0l-0.1,0l0,0l-0.1,0l0,0l0,0l0,0l0,0l0,0l0,0l0,0l-0.1-0.1l0,0l0,0l0,0l0,0
                l0,0c-1.6-0.8-2.8-2.3-3.3-4.2c-0.8-3.4-1.3-5.3-3.3-6.3c0,2.9-0.3,5.8-1,8.3c-0.6,2.4,0.2,4.8,1.9,6.7L237,48.1
                c0.1,0.1,0.2,0.2,0.2,0.2c-5.4-5.3-8.7-12.7-8.7-20.8c0-12.7,8-23.4,19.3-27.5l0,0l1.4,4c-0.1,0.4-0.1,0.8-0.1,1.3
                c0,3.6,2.2,6.8,5.3,8.2c0.3,4,2,7.7,5.9,11.8c2.6,2.8,2.2,5.7,0.6,7.4l7.7,6.1c2.3-2.4,3.6-5.7,3.2-9.9c-0.2-2.9-1.6-5.6-4.2-7.5
                c-3.7-2.7-5.7-5.1-6.2-7.8c3.3-1.3,5.6-4.5,5.6-8.3c0-0.7-0.1-1.4-0.2-2L267.9,0L267.9,0L267.9,0z"/>
            <path class="st1" d="M237.7,48.8l12.2-9.8c2.4,2.3,6.1,3.8,10,3.5c2.3-0.2,4.4-0.8,6.1-1.8c0.1,0,1-0.6,1.1-0.6l10.9,8.8
                c-5.3,5-12.3,8-20.1,8C250,56.9,242.9,53.8,237.7,48.8L237.7,48.8z"/>
            <path class="st0" d="M213.9,67.9v2.4h3.9v-2.4h1.1v6h-1.1v-2.6h-3.9V74h-1.1v-6H213.9L213.9,67.9z M221.9,72h3.3l-1.3-3.1h-0.7
                L221.9,72L221.9,72z M224.6,67.9l2.6,6H226l-0.4-1h-4.1l-0.4,1h-1.2l2.6-6H224.6L224.6,67.9z M234.4,67.9V73l0.7,0v2.2h-1
                l-0.1-1.2h-5.2l-0.1,1.2h-1V73h0.8l1-5.1H234.4L234.4,67.9z M229.8,73h3.5v-4.1h-2.7L229.8,73L229.8,73z M239.9,67.9
                c0.3,0,0.5,0,0.7,0.1c0.2,0.1,0.4,0.2,0.6,0.3c0.2,0.1,0.3,0.3,0.4,0.5c0.1,0.2,0.1,0.4,0.1,0.6c0,0.5-0.2,0.9-0.5,1.1
                c0.3,0.1,0.5,0.3,0.7,0.6c0.2,0.3,0.2,0.6,0.2,0.9c0,0.3,0,0.5-0.1,0.7c-0.1,0.2-0.2,0.4-0.4,0.6c-0.2,0.2-0.4,0.3-0.6,0.4
                c-0.2,0.1-0.5,0.1-0.8,0.1h-4.1v-6H239.9L239.9,67.9z M237.2,70.3h2.8c0.2,0,0.4-0.1,0.5-0.2c0.1-0.1,0.2-0.3,0.2-0.5
                c0-0.1,0-0.2,0-0.3c0-0.1-0.1-0.2-0.1-0.2c-0.1-0.1-0.2-0.1-0.3-0.2c-0.1,0-0.2-0.1-0.4-0.1h-2.7V70.3L237.2,70.3z M237.2,73h3
                c0.3,0,0.6-0.1,0.7-0.2c0.2-0.2,0.2-0.4,0.2-0.6c0-0.3-0.1-0.5-0.2-0.6c-0.2-0.1-0.4-0.2-0.6-0.2h-3.1V73L237.2,73z M244.3,67.9v6
                h-1.1v-6H244.3L244.3,67.9z M249,67.9c0.3,0,0.7,0.1,1,0.2c0.3,0.1,0.6,0.3,0.8,0.5c0.2,0.2,0.4,0.4,0.5,0.7
                c0.1,0.3,0.2,0.6,0.2,1c0,0.4-0.1,0.7-0.2,1c-0.1,0.3-0.3,0.5-0.5,0.7c-0.2,0.2-0.5,0.4-0.8,0.5c-0.3,0.1-0.6,0.2-1,0.2h-2.4V74
                h-1.1v-6H249L249,67.9z M246.5,71.5h2.4c0.4,0,0.8-0.1,1-0.3c0.3-0.2,0.4-0.5,0.4-1c0-0.4-0.1-0.7-0.4-1c-0.3-0.2-0.6-0.3-1-0.3
                h-2.4V71.5L246.5,71.5z M253.5,67.9v2.4h3.9v-2.4h1.1v6h-1.1v-2.6h-3.9V74h-1.1v-6H253.5L253.5,67.9z M265.4,74h-1.1v-1.4h-2.6
                l-0.8,1.4h-1.2l1-1.7c-0.4-0.2-0.7-0.5-0.9-0.8c-0.2-0.3-0.3-0.7-0.3-1.2c0-0.3,0.1-0.7,0.2-1c0.1-0.3,0.3-0.5,0.5-0.7
                c0.2-0.2,0.5-0.4,0.8-0.5c0.3-0.1,0.6-0.2,1-0.2h3.6V74L265.4,74z M261.9,68.9c-0.4,0-0.8,0.1-1,0.4c-0.3,0.2-0.4,0.6-0.4,1
                c0,0.4,0.1,0.7,0.4,0.9c0.3,0.2,0.6,0.3,1,0.3h2.4v-2.6H261.9L261.9,68.9z M267.7,67.9v2.4h3.9v-2.4h1.1v6h-1.1v-2.6h-3.9V74h-1.1
                v-6H267.7L267.7,67.9z M279.2,69.8c-0.2-0.3-0.5-0.6-0.9-0.8c-0.3-0.2-0.8-0.3-1.3-0.3c-0.3,0-0.7,0.1-0.9,0.2
                c-0.3,0.1-0.5,0.2-0.7,0.4c-0.2,0.2-0.3,0.4-0.4,0.7c-0.1,0.3-0.2,0.6-0.2,0.9c0,0.3,0.1,0.6,0.2,0.9c0.1,0.3,0.3,0.5,0.5,0.7
                c0.2,0.2,0.4,0.3,0.7,0.4c0.3,0.1,0.6,0.2,0.9,0.2c0.5,0,0.9-0.1,1.3-0.3c0.3-0.2,0.6-0.4,0.9-0.8l0.9,0.5
                c-0.3,0.5-0.7,0.9-1.2,1.1c-0.5,0.3-1.1,0.4-1.8,0.4c-0.5,0-0.9-0.1-1.3-0.2c-0.4-0.1-0.8-0.4-1.1-0.6c-0.3-0.3-0.5-0.6-0.7-1
                s-0.3-0.8-0.3-1.3c0-0.5,0.1-0.9,0.3-1.3c0.2-0.4,0.4-0.7,0.7-1c0.3-0.3,0.7-0.5,1.1-0.6c0.4-0.1,0.8-0.2,1.3-0.2
                c0.7,0,1.3,0.1,1.8,0.4c0.5,0.3,0.9,0.6,1.2,1.1L279.2,69.8L279.2,69.8z M282.2,67.9v1.5h2.3c0.3,0,0.7,0.1,1,0.2
                c0.3,0.1,0.6,0.3,0.8,0.5c0.2,0.2,0.4,0.4,0.5,0.7c0.1,0.3,0.2,0.6,0.2,0.9c0,0.3-0.1,0.7-0.2,1c-0.1,0.3-0.3,0.5-0.5,0.7
                c-0.2,0.2-0.5,0.4-0.8,0.5c-0.3,0.1-0.6,0.2-1,0.2h-3.4v-6H282.2L282.2,67.9z M282.2,72.9h2.2c0.5,0,0.8-0.1,1-0.3
                c0.2-0.2,0.4-0.5,0.4-1c0-0.4-0.1-0.8-0.4-1c-0.2-0.2-0.6-0.3-1-0.3h-2.2V72.9L282.2,72.9z M289,67.9v2.4h2.1l1.6-2.4h1.3
                l-1.9,2.8l2.1,3.2h-1.3l-1.7-2.7H289V74h-1.1v-6H289L289,67.9z M296.8,72h3.3l-1.3-3.1h-0.7L296.8,72L296.8,72z M299.5,67.9l2.6,6
                h-1.2l-0.4-1h-4.1l-0.4,1h-1.2l2.6-6H299.5L299.5,67.9z"/>
              <path class="st0" d="M207.7,87.6h4l-1.7-4.4h-0.5L207.7,87.6L207.7,87.6z M212,80.5l4.8,11.4h-3.2l-0.7-1.7h-6.3l-0.7,1.7h-3.3
                l4.9-11.4H212L212,80.5z M225.7,80.5c0.5,0,1,0.1,1.4,0.2c0.4,0.2,0.8,0.4,1.1,0.6c0.3,0.3,0.6,0.6,0.7,1c0.2,0.4,0.3,0.8,0.3,1.3
                c0,0.4-0.1,0.7-0.2,1c-0.1,0.3-0.3,0.6-0.6,0.8c0.5,0.3,0.9,0.7,1.2,1.1c0.3,0.4,0.4,1,0.4,1.8c0,0.5-0.1,1-0.3,1.4
                c-0.2,0.4-0.5,0.8-0.8,1.1c-0.3,0.3-0.7,0.6-1.2,0.8s-0.9,0.3-1.5,0.3h-8V80.5H225.7L225.7,80.5z M221.4,84.7h4.4
                c0.2,0,0.3-0.1,0.4-0.2c0.1-0.2,0.2-0.3,0.2-0.5c0-0.2-0.1-0.3-0.2-0.5s-0.3-0.3-0.6-0.3h-4.2V84.7L221.4,84.7z M221.4,89.1h4.9
                c0.2,0,0.4-0.1,0.6-0.2c0.2-0.2,0.2-0.4,0.2-0.6c0-0.3-0.1-0.5-0.3-0.7c-0.2-0.2-0.4-0.3-0.7-0.3h-4.8V89.1L221.4,89.1z
                M242.8,80.5v2.7h-4.4v8.7h-3v-8.7h-4.4v-2.7H242.8L242.8,80.5z M247,86.2c0,0.5,0.1,1,0.3,1.4c0.2,0.4,0.4,0.8,0.7,1.1
                c0.3,0.3,0.7,0.5,1.1,0.7c0.4,0.2,0.8,0.2,1.3,0.2c0.5,0,0.9-0.1,1.3-0.2c0.4-0.2,0.8-0.4,1.1-0.7c0.3-0.3,0.5-0.7,0.7-1.1
                c0.2-0.4,0.3-0.9,0.3-1.4c0-0.5-0.1-1-0.3-1.4c-0.2-0.4-0.4-0.8-0.7-1.1c-0.3-0.3-0.7-0.5-1.1-0.7c-0.4-0.2-0.9-0.2-1.3-0.2
                c-0.5,0-0.9,0.1-1.3,0.2c-0.4,0.2-0.8,0.4-1.1,0.7c-0.3,0.3-0.6,0.7-0.7,1.1C247.1,85.2,247,85.6,247,86.2L247,86.2z M256.8,86.2
                c0,0.9-0.2,1.7-0.5,2.4c-0.4,0.7-0.8,1.4-1.4,1.9c-0.6,0.5-1.3,0.9-2,1.2s-1.6,0.4-2.4,0.4c-0.9,0-1.7-0.1-2.4-0.4
                c-0.8-0.3-1.5-0.7-2-1.2c-0.6-0.5-1-1.2-1.4-1.9c-0.4-0.7-0.5-1.5-0.5-2.4c0-0.9,0.2-1.7,0.5-2.4c0.4-0.7,0.8-1.4,1.4-1.9
                c0.6-0.5,1.3-0.9,2-1.2c0.8-0.3,1.6-0.4,2.4-0.4c0.9,0,1.7,0.1,2.4,0.4s1.5,0.7,2,1.2c0.6,0.5,1,1.2,1.4,1.9
                C256.6,84.5,256.8,85.3,256.8,86.2L256.8,86.2z M268.6,80.5v2.7h-7v0.9h4.3c0.6,0,1.1,0.1,1.6,0.3c0.5,0.2,0.9,0.5,1.3,0.8
                s0.6,0.7,0.8,1.2c0.2,0.5,0.3,1,0.3,1.5c0,0.5-0.1,1-0.3,1.5c-0.2,0.5-0.5,0.9-0.8,1.3c-0.4,0.4-0.8,0.6-1.3,0.9
                c-0.5,0.2-1,0.3-1.6,0.3h-7.3V80.5H268.6L268.6,80.5z M261.6,89.1h4.1c0.5,0,0.8-0.1,1-0.4c0.2-0.2,0.3-0.5,0.3-0.9
                c0-0.3-0.1-0.6-0.3-0.8c-0.2-0.2-0.5-0.3-1-0.3h-4.1V89.1L261.6,89.1z M275.8,87.6h4l-1.7-4.4h-0.5L275.8,87.6L275.8,87.6z
                M280.1,80.5l4.8,11.4h-3.2l-0.7-1.7h-6.3l-0.7,1.7h-3.3l4.9-11.4H280.1L280.1,80.5z M293.8,84.6c0.2,0,0.3-0.1,0.4-0.2
                c0.1-0.1,0.1-0.3,0.1-0.5c0-0.3-0.2-0.6-0.6-0.8c-0.4-0.2-1.1-0.3-1.9-0.3c-0.5,0-1,0-1.4,0.1c-0.4,0-0.8,0.1-1.1,0.2
                c-0.3,0.1-0.7,0.2-1,0.4c-0.3,0.2-0.7,0.4-1,0.6l-1.3-2.2c0.5-0.3,0.9-0.6,1.4-0.8c0.4-0.2,0.9-0.4,1.4-0.5
                c0.5-0.1,0.9-0.2,1.4-0.3c0.5-0.1,1-0.1,1.5-0.1c2.1,0,3.6,0.4,4.5,1.1c0.8,0.6,1.2,1.5,1.2,2.5c0,0.3-0.1,0.6-0.2,0.9
                s-0.3,0.5-0.5,0.7c0.4,0.3,0.8,0.7,1,1.1c0.2,0.4,0.4,1,0.4,1.6c0,0.6-0.1,1.1-0.4,1.6c-0.3,0.5-0.7,0.9-1.2,1.3
                c-0.5,0.4-1.2,0.7-2,0.8c-0.8,0.2-1.7,0.2-2.7,0.2c-0.6,0-1.2,0-1.8-0.1c-0.5-0.1-1.1-0.2-1.5-0.3c-0.5-0.1-1-0.3-1.4-0.6
                c-0.5-0.2-0.9-0.5-1.4-0.8l1.4-2.2c0.7,0.5,1.4,0.8,2.2,1c0.8,0.2,1.7,0.4,2.6,0.4c0.5,0,0.9,0,1.3-0.1c0.4,0,0.7-0.1,1-0.2
                c0.3-0.1,0.5-0.3,0.6-0.4c0.2-0.2,0.2-0.4,0.2-0.7c0-0.3-0.1-0.5-0.3-0.6c-0.2-0.1-0.5-0.2-1.1-0.2h-4.6v-2.7H293.8L293.8,84.6z
                M303.9,87.6h4l-1.7-4.4h-0.5L303.9,87.6L303.9,87.6z M308.2,80.5l4.8,11.4h-3.2l-0.7-1.7h-6.3l-0.7,1.7h-3.3l4.9-11.4H308.2
                L308.2,80.5z"/>
</svg>
            
              
              