<svg version="1.1"
            xmlns="http://www.w3.org/2000/svg" xmlns:xlink="http://www.w3.org/1999/xlink" xmlns:a="http://ns.adobe.com/AdobeSVGViewerExtensions/3.0/"
            x="0px" y="0px" width="966.1px" height="92.1px" viewBox="0 0 966.1 92.1" style="enable-background:new 0 0 966.1 92.1;"
            xml:space="preserve">
          <style type="text/css">
            .st0{fill:#6C6966;}
            .st1{fill-rule:evenodd;clip-rule:evenodd;fill:#B3B3B3;}
            .st2{fill-rule:evenodd;clip-rule:evenodd;fill:#6C6966;}
          </style>
          <defs>
          </defs>
          <g>
            <path class="st0" d="M6.9,77.9c-1.3,0-2.5-0.3-3.5-0.8c-1-0.6-1.9-1.3-2.5-2.3c-0.6-1-0.9-2.1-0.9-3.4C0,70.1,0.3,69,0.9,68
              c0.6-1,1.4-1.8,2.5-2.3c1-0.6,2.2-0.8,3.5-0.8c1.1,0,2.1,0.2,3,0.6c0.9,0.4,1.6,0.9,2.2,1.7l-1.9,1.7c-0.9-1-1.9-1.5-3.2-1.5
              c-0.8,0-1.5,0.2-2.1,0.5c-0.6,0.3-1.1,0.8-1.4,1.4C3.2,69.9,3,70.6,3,71.4c0,0.8,0.2,1.5,0.5,2.1c0.3,0.6,0.8,1.1,1.4,1.4
              c0.6,0.3,1.3,0.5,2.1,0.5c1.3,0,2.3-0.5,3.2-1.5l1.9,1.7c-0.6,0.7-1.4,1.3-2.3,1.7C9,77.7,8,77.9,6.9,77.9L6.9,77.9z M23.7,67.4
              h-4.1v10.3h-2.9V67.4h-4.1V65h11V67.4L23.7,67.4z M31.4,77.9c-1.3,0-2.5-0.3-3.6-0.9c-1.1-0.6-1.9-1.4-2.5-2.4
              c-0.6-1-0.9-2.1-0.9-3.4s0.3-2.4,0.9-3.4c0.6-1,1.4-1.8,2.5-2.4c1.1-0.6,2.3-0.9,3.6-0.9c1.3,0,2.5,0.3,3.6,0.9
              c1.1,0.6,1.9,1.4,2.5,2.4c0.6,1,0.9,2.1,0.9,3.4s-0.3,2.4-0.9,3.4c-0.6,1-1.4,1.8-2.5,2.4C33.9,77.7,32.7,77.9,31.4,77.9L31.4,77.9
              z M31.4,75.4c0.8,0,1.4-0.2,2-0.5c0.6-0.3,1.1-0.8,1.4-1.4c0.3-0.6,0.5-1.3,0.5-2.1c0-0.8-0.2-1.5-0.5-2.1s-0.8-1.1-1.4-1.4
              c-0.6-0.3-1.3-0.5-2-0.5c-0.8,0-1.4,0.2-2,0.5c-0.6,0.3-1.1,0.8-1.4,1.4c-0.3,0.6-0.5,1.3-0.5,2.1c0,0.8,0.2,1.5,0.5,2.1
              c0.3,0.6,0.8,1.1,1.4,1.4C30,75.3,30.7,75.4,31.4,75.4L31.4,75.4z M51.6,65v12.7h-2.9V67.4h-4.4l-0.1,2.7c-0.1,1.8-0.2,3.3-0.4,4.4
              c-0.2,1.1-0.6,2-1.2,2.6c-0.5,0.6-1.3,0.9-2.3,0.9c-0.4,0-0.9-0.1-1.5-0.2l0.2-2.5c0.2,0,0.3,0.1,0.5,0.1c0.7,0,1.2-0.4,1.5-1.2
              c0.3-0.8,0.5-2.1,0.5-3.9l0.2-5.2H51.6L51.6,65z M54.8,65h2.9v12.7h-2.9V65L54.8,65z M70.6,67.4h-4.1v10.3h-2.9V67.4h-4.1V65h11
              V67.4L70.6,67.4z M82.4,67.4h-4.1v10.3h-2.9V67.4h-4.1V65h11V67.4L82.4,67.4z M93.8,65v12.7h-2.9v-3.4h-2.7L86,77.7h-3.1l2.7-3.8
              c-0.9-0.4-1.5-0.9-2-1.6c-0.5-0.7-0.7-1.6-0.7-2.6c0-1,0.2-1.8,0.7-2.5s1.1-1.3,1.9-1.6c0.8-0.4,1.8-0.6,2.9-0.6H93.8L93.8,65z
              M88.4,67.4c-0.8,0-1.5,0.2-1.9,0.6c-0.4,0.4-0.7,1-0.7,1.7c0,0.7,0.2,1.3,0.6,1.7c0.4,0.4,1,0.6,1.9,0.6h2.6v-4.6H88.4L88.4,67.4z
              "/>
            <path class="st1" d="M56.9,45.2l27.4-27.4c2.1-2.1,5.4-2.1,7.5,0l0,0c2.1,2.1,2.1,5.4,0,7.5L64.3,52.7c-2.1,2.1-5.4,2.1-7.5,0l0,0
              C54.8,50.6,54.8,47.3,56.9,45.2L56.9,45.2z"/>
            <path class="st1" d="M29.4,45.2l27.4-27.4c2.1-2.1,5.4-2.1,7.5,0l0,0c2.1,2.1,2.1,5.4,0,7.5L36.8,52.7c-2.1,2.1-5.4,2.1-7.5,0l0,0
              C27.3,50.6,27.3,47.3,29.4,45.2L29.4,45.2z"/>
            <path class="st1" d="M2.1,45.2l27.4-27.4c2.1-2.1,5.4-2.1,7.5,0l0,0c2.1,2.1,2.1,5.4,0,7.5L9.6,52.7c-2.1,2.1-5.4,2.1-7.5,0l0,0
              C0.1,50.6,0.1,47.3,2.1,45.2L2.1,45.2z"/>
            <path class="st2" d="M64.3,45.2L36.9,17.8c-2.1-2.1-5.4-2.1-7.5,0l0,0c-2.1,2.1-2.1,5.4,0,7.5l27.4,27.4c2.1,2.1,5.4,2.1,7.5,0l0,0
              C66.3,50.6,66.3,47.3,64.3,45.2L64.3,45.2z"/>
            <path class="st2" d="M37,45.2L9.6,17.8c-2.1-2.1-5.4-2.1-7.5,0l0,0c-2.1,2.1-2.1,5.4,0,7.5l27.4,27.4c2.1,2.1,5.4,2.1,7.5,0l0,0
              C39,50.6,39,47.3,37,45.2L37,45.2z"/>
            <path class="st0" d="M6.9,81.6v6.8H5.3v-5.5H2.2v5.5H0.7v-6.8H6.9L6.9,81.6z M14.6,81.6v6.8h-1.6v-5.5h-2.3l0,1.4
              c0,1-0.1,1.8-0.2,2.4s-0.3,1.1-0.6,1.4c-0.3,0.3-0.7,0.5-1.2,0.5c-0.2,0-0.5,0-0.8-0.1l0.1-1.3c0.1,0,0.2,0,0.3,0
              c0.4,0,0.6-0.2,0.8-0.7c0.1-0.4,0.2-1.1,0.3-2.1l0.1-2.8H14.6L14.6,81.6z M22.3,81.5c0.7,0,1.3,0.2,1.8,0.5c0.5,0.3,1,0.7,1.3,1.3
              c0.3,0.5,0.5,1.1,0.5,1.8c0,0.7-0.2,1.3-0.5,1.8s-0.7,1-1.3,1.3c-0.5,0.3-1.2,0.5-1.8,0.5c-0.6,0-1.2-0.1-1.7-0.4
              c-0.5-0.2-0.9-0.6-1.3-1c-0.3-0.4-0.5-0.9-0.6-1.5h-0.9v2.8h-1.6v-6.8h1.6v2.7h0.9c0.1-0.5,0.3-1,0.6-1.5c0.3-0.4,0.7-0.8,1.2-1
              C21.2,81.6,21.7,81.5,22.3,81.5L22.3,81.5z M22.3,87.2c0.4,0,0.7-0.1,1-0.3c0.3-0.2,0.5-0.4,0.7-0.8s0.3-0.7,0.3-1.1
              c0-0.4-0.1-0.8-0.3-1.1s-0.4-0.6-0.7-0.8c-0.3-0.2-0.6-0.3-1-0.3c-0.4,0-0.7,0.1-1,0.3c-0.3,0.2-0.5,0.4-0.7,0.8
              c-0.2,0.3-0.3,0.7-0.3,1.1c0,0.4,0.1,0.8,0.3,1.1c0.2,0.3,0.4,0.6,0.7,0.8C21.6,87.1,22,87.2,22.3,87.2L22.3,87.2z M30.4,88.6
              c-0.7,0-1.3-0.2-1.9-0.5c-0.6-0.3-1-0.7-1.3-1.3c-0.3-0.5-0.5-1.1-0.5-1.8c0-0.7,0.2-1.3,0.5-1.8c0.3-0.5,0.8-1,1.3-1.3
              c0.6-0.3,1.2-0.5,1.9-0.5c0.6,0,1.1,0.1,1.6,0.3c0.5,0.2,0.9,0.5,1.2,0.9l-1,0.9c-0.5-0.5-1-0.8-1.7-0.8c-0.4,0-0.8,0.1-1.1,0.3
              c-0.3,0.2-0.6,0.4-0.8,0.8c-0.2,0.3-0.3,0.7-0.3,1.1c0,0.4,0.1,0.8,0.3,1.1c0.2,0.3,0.4,0.6,0.8,0.8c0.3,0.2,0.7,0.3,1.1,0.3
              c0.7,0,1.3-0.3,1.7-0.8l1,0.9c-0.3,0.4-0.7,0.7-1.2,0.9C31.5,88.5,31,88.6,30.4,88.6L30.4,88.6z"/>
            <g>
              <path class="st2" d="M267.9,0c11.2,4.1,19.3,14.9,19.3,27.5c0,8-3.2,15.3-8.5,20.6l-19.2-15.3c0,0,0,0,0,0c-1.1-0.8-2.2-0.8-3.3,0
                c0,0,0,0,0,0l-0.4,0.3c0.4,0.2,0.9,0.2,1.4,0.2c0.6-0.3,1.2-0.1,1.7,0.2l3.7,2.9l-3.4-2.7c-0.3,0.2-1.1,0.4-1.1,0.4
                c-0.7,0.1-1.4,0.1-2.1,0v0c-0.2,0-0.3-0.1-0.5-0.1l0,0l-0.1,0l0,0l-0.1,0l0,0l0,0l0,0l0,0l0,0l0,0l0,0l-0.1-0.1l0,0l0,0l0,0l0,0
                l0,0c-1.6-0.8-2.8-2.3-3.3-4.2c-0.8-3.4-1.3-5.3-3.3-6.3c0,2.9-0.3,5.8-1,8.3c-0.6,2.4,0.2,4.8,1.9,6.7L237,48.1
                c0.1,0.1,0.2,0.2,0.2,0.2c-5.4-5.3-8.7-12.7-8.7-20.8c0-12.7,8-23.4,19.3-27.5l0,0l1.4,4c-0.1,0.4-0.1,0.8-0.1,1.3
                c0,3.6,2.2,6.8,5.3,8.2c0.3,4,2,7.7,5.9,11.8c2.6,2.8,2.2,5.7,0.6,7.4l7.7,6.1c2.3-2.4,3.6-5.7,3.2-9.9c-0.2-2.9-1.6-5.6-4.2-7.5
                c-3.7-2.7-5.7-5.1-6.2-7.8c3.3-1.3,5.6-4.5,5.6-8.3c0-0.7-0.1-1.4-0.2-2L267.9,0L267.9,0L267.9,0z"/>
              <path class="st1" d="M237.7,48.8l12.2-9.8c2.4,2.3,6.1,3.8,10,3.5c2.3-0.2,4.4-0.8,6.1-1.8c0.1,0,1-0.6,1.1-0.6l10.9,8.8
                c-5.3,5-12.3,8-20.1,8C250,56.9,242.9,53.8,237.7,48.8L237.7,48.8z"/>
              <path class="st0" d="M213.9,67.9v2.4h3.9v-2.4h1.1v6h-1.1v-2.6h-3.9V74h-1.1v-6H213.9L213.9,67.9z M221.9,72h3.3l-1.3-3.1h-0.7
                L221.9,72L221.9,72z M224.6,67.9l2.6,6H226l-0.4-1h-4.1l-0.4,1h-1.2l2.6-6H224.6L224.6,67.9z M234.4,67.9V73l0.7,0v2.2h-1
                l-0.1-1.2h-5.2l-0.1,1.2h-1V73h0.8l1-5.1H234.4L234.4,67.9z M229.8,73h3.5v-4.1h-2.7L229.8,73L229.8,73z M239.9,67.9
                c0.3,0,0.5,0,0.7,0.1c0.2,0.1,0.4,0.2,0.6,0.3c0.2,0.1,0.3,0.3,0.4,0.5c0.1,0.2,0.1,0.4,0.1,0.6c0,0.5-0.2,0.9-0.5,1.1
                c0.3,0.1,0.5,0.3,0.7,0.6c0.2,0.3,0.2,0.6,0.2,0.9c0,0.3,0,0.5-0.1,0.7c-0.1,0.2-0.2,0.4-0.4,0.6c-0.2,0.2-0.4,0.3-0.6,0.4
                c-0.2,0.1-0.5,0.1-0.8,0.1h-4.1v-6H239.9L239.9,67.9z M237.2,70.3h2.8c0.2,0,0.4-0.1,0.5-0.2c0.1-0.1,0.2-0.3,0.2-0.5
                c0-0.1,0-0.2,0-0.3c0-0.1-0.1-0.2-0.1-0.2c-0.1-0.1-0.2-0.1-0.3-0.2c-0.1,0-0.2-0.1-0.4-0.1h-2.7V70.3L237.2,70.3z M237.2,73h3
                c0.3,0,0.6-0.1,0.7-0.2c0.2-0.2,0.2-0.4,0.2-0.6c0-0.3-0.1-0.5-0.2-0.6c-0.2-0.1-0.4-0.2-0.6-0.2h-3.1V73L237.2,73z M244.3,67.9v6
                h-1.1v-6H244.3L244.3,67.9z M249,67.9c0.3,0,0.7,0.1,1,0.2c0.3,0.1,0.6,0.3,0.8,0.5c0.2,0.2,0.4,0.4,0.5,0.7
                c0.1,0.3,0.2,0.6,0.2,1c0,0.4-0.1,0.7-0.2,1c-0.1,0.3-0.3,0.5-0.5,0.7c-0.2,0.2-0.5,0.4-0.8,0.5c-0.3,0.1-0.6,0.2-1,0.2h-2.4V74
                h-1.1v-6H249L249,67.9z M246.5,71.5h2.4c0.4,0,0.8-0.1,1-0.3c0.3-0.2,0.4-0.5,0.4-1c0-0.4-0.1-0.7-0.4-1c-0.3-0.2-0.6-0.3-1-0.3
                h-2.4V71.5L246.5,71.5z M253.5,67.9v2.4h3.9v-2.4h1.1v6h-1.1v-2.6h-3.9V74h-1.1v-6H253.5L253.5,67.9z M265.4,74h-1.1v-1.4h-2.6
                l-0.8,1.4h-1.2l1-1.7c-0.4-0.2-0.7-0.5-0.9-0.8c-0.2-0.3-0.3-0.7-0.3-1.2c0-0.3,0.1-0.7,0.2-1c0.1-0.3,0.3-0.5,0.5-0.7
                c0.2-0.2,0.5-0.4,0.8-0.5c0.3-0.1,0.6-0.2,1-0.2h3.6V74L265.4,74z M261.9,68.9c-0.4,0-0.8,0.1-1,0.4c-0.3,0.2-0.4,0.6-0.4,1
                c0,0.4,0.1,0.7,0.4,0.9c0.3,0.2,0.6,0.3,1,0.3h2.4v-2.6H261.9L261.9,68.9z M267.7,67.9v2.4h3.9v-2.4h1.1v6h-1.1v-2.6h-3.9V74h-1.1
                v-6H267.7L267.7,67.9z M279.2,69.8c-0.2-0.3-0.5-0.6-0.9-0.8c-0.3-0.2-0.8-0.3-1.3-0.3c-0.3,0-0.7,0.1-0.9,0.2
                c-0.3,0.1-0.5,0.2-0.7,0.4c-0.2,0.2-0.3,0.4-0.4,0.7c-0.1,0.3-0.2,0.6-0.2,0.9c0,0.3,0.1,0.6,0.2,0.9c0.1,0.3,0.3,0.5,0.5,0.7
                c0.2,0.2,0.4,0.3,0.7,0.4c0.3,0.1,0.6,0.2,0.9,0.2c0.5,0,0.9-0.1,1.3-0.3c0.3-0.2,0.6-0.4,0.9-0.8l0.9,0.5
                c-0.3,0.5-0.7,0.9-1.2,1.1c-0.5,0.3-1.1,0.4-1.8,0.4c-0.5,0-0.9-0.1-1.3-0.2c-0.4-0.1-0.8-0.4-1.1-0.6c-0.3-0.3-0.5-0.6-0.7-1
                s-0.3-0.8-0.3-1.3c0-0.5,0.1-0.9,0.3-1.3c0.2-0.4,0.4-0.7,0.7-1c0.3-0.3,0.7-0.5,1.1-0.6c0.4-0.1,0.8-0.2,1.3-0.2
                c0.7,0,1.3,0.1,1.8,0.4c0.5,0.3,0.9,0.6,1.2,1.1L279.2,69.8L279.2,69.8z M282.2,67.9v1.5h2.3c0.3,0,0.7,0.1,1,0.2
                c0.3,0.1,0.6,0.3,0.8,0.5c0.2,0.2,0.4,0.4,0.5,0.7c0.1,0.3,0.2,0.6,0.2,0.9c0,0.3-0.1,0.7-0.2,1c-0.1,0.3-0.3,0.5-0.5,0.7
                c-0.2,0.2-0.5,0.4-0.8,0.5c-0.3,0.1-0.6,0.2-1,0.2h-3.4v-6H282.2L282.2,67.9z M282.2,72.9h2.2c0.5,0,0.8-0.1,1-0.3
                c0.2-0.2,0.4-0.5,0.4-1c0-0.4-0.1-0.8-0.4-1c-0.2-0.2-0.6-0.3-1-0.3h-2.2V72.9L282.2,72.9z M289,67.9v2.4h2.1l1.6-2.4h1.3
                l-1.9,2.8l2.1,3.2h-1.3l-1.7-2.7H289V74h-1.1v-6H289L289,67.9z M296.8,72h3.3l-1.3-3.1h-0.7L296.8,72L296.8,72z M299.5,67.9l2.6,6
                h-1.2l-0.4-1h-4.1l-0.4,1h-1.2l2.6-6H299.5L299.5,67.9z"/>
              <path class="st0" d="M207.7,87.6h4l-1.7-4.4h-0.5L207.7,87.6L207.7,87.6z M212,80.5l4.8,11.4h-3.2l-0.7-1.7h-6.3l-0.7,1.7h-3.3
                l4.9-11.4H212L212,80.5z M225.7,80.5c0.5,0,1,0.1,1.4,0.2c0.4,0.2,0.8,0.4,1.1,0.6c0.3,0.3,0.6,0.6,0.7,1c0.2,0.4,0.3,0.8,0.3,1.3
                c0,0.4-0.1,0.7-0.2,1c-0.1,0.3-0.3,0.6-0.6,0.8c0.5,0.3,0.9,0.7,1.2,1.1c0.3,0.4,0.4,1,0.4,1.8c0,0.5-0.1,1-0.3,1.4
                c-0.2,0.4-0.5,0.8-0.8,1.1c-0.3,0.3-0.7,0.6-1.2,0.8s-0.9,0.3-1.5,0.3h-8V80.5H225.7L225.7,80.5z M221.4,84.7h4.4
                c0.2,0,0.3-0.1,0.4-0.2c0.1-0.2,0.2-0.3,0.2-0.5c0-0.2-0.1-0.3-0.2-0.5s-0.3-0.3-0.6-0.3h-4.2V84.7L221.4,84.7z M221.4,89.1h4.9
                c0.2,0,0.4-0.1,0.6-0.2c0.2-0.2,0.2-0.4,0.2-0.6c0-0.3-0.1-0.5-0.3-0.7c-0.2-0.2-0.4-0.3-0.7-0.3h-4.8V89.1L221.4,89.1z
                M242.8,80.5v2.7h-4.4v8.7h-3v-8.7h-4.4v-2.7H242.8L242.8,80.5z M247,86.2c0,0.5,0.1,1,0.3,1.4c0.2,0.4,0.4,0.8,0.7,1.1
                c0.3,0.3,0.7,0.5,1.1,0.7c0.4,0.2,0.8,0.2,1.3,0.2c0.5,0,0.9-0.1,1.3-0.2c0.4-0.2,0.8-0.4,1.1-0.7c0.3-0.3,0.5-0.7,0.7-1.1
                c0.2-0.4,0.3-0.9,0.3-1.4c0-0.5-0.1-1-0.3-1.4c-0.2-0.4-0.4-0.8-0.7-1.1c-0.3-0.3-0.7-0.5-1.1-0.7c-0.4-0.2-0.9-0.2-1.3-0.2
                c-0.5,0-0.9,0.1-1.3,0.2c-0.4,0.2-0.8,0.4-1.1,0.7c-0.3,0.3-0.6,0.7-0.7,1.1C247.1,85.2,247,85.6,247,86.2L247,86.2z M256.8,86.2
                c0,0.9-0.2,1.7-0.5,2.4c-0.4,0.7-0.8,1.4-1.4,1.9c-0.6,0.5-1.3,0.9-2,1.2s-1.6,0.4-2.4,0.4c-0.9,0-1.7-0.1-2.4-0.4
                c-0.8-0.3-1.5-0.7-2-1.2c-0.6-0.5-1-1.2-1.4-1.9c-0.4-0.7-0.5-1.5-0.5-2.4c0-0.9,0.2-1.7,0.5-2.4c0.4-0.7,0.8-1.4,1.4-1.9
                c0.6-0.5,1.3-0.9,2-1.2c0.8-0.3,1.6-0.4,2.4-0.4c0.9,0,1.7,0.1,2.4,0.4s1.5,0.7,2,1.2c0.6,0.5,1,1.2,1.4,1.9
                C256.6,84.5,256.8,85.3,256.8,86.2L256.8,86.2z M268.6,80.5v2.7h-7v0.9h4.3c0.6,0,1.1,0.1,1.6,0.3c0.5,0.2,0.9,0.5,1.3,0.8
                s0.6,0.7,0.8,1.2c0.2,0.5,0.3,1,0.3,1.5c0,0.5-0.1,1-0.3,1.5c-0.2,0.5-0.5,0.9-0.8,1.3c-0.4,0.4-0.8,0.6-1.3,0.9
                c-0.5,0.2-1,0.3-1.6,0.3h-7.3V80.5H268.6L268.6,80.5z M261.6,89.1h4.1c0.5,0,0.8-0.1,1-0.4c0.2-0.2,0.3-0.5,0.3-0.9
                c0-0.3-0.1-0.6-0.3-0.8c-0.2-0.2-0.5-0.3-1-0.3h-4.1V89.1L261.6,89.1z M275.8,87.6h4l-1.7-4.4h-0.5L275.8,87.6L275.8,87.6z
                M280.1,80.5l4.8,11.4h-3.2l-0.7-1.7h-6.3l-0.7,1.7h-3.3l4.9-11.4H280.1L280.1,80.5z M293.8,84.6c0.2,0,0.3-0.1,0.4-0.2
                c0.1-0.1,0.1-0.3,0.1-0.5c0-0.3-0.2-0.6-0.6-0.8c-0.4-0.2-1.1-0.3-1.9-0.3c-0.5,0-1,0-1.4,0.1c-0.4,0-0.8,0.1-1.1,0.2
                c-0.3,0.1-0.7,0.2-1,0.4c-0.3,0.2-0.7,0.4-1,0.6l-1.3-2.2c0.5-0.3,0.9-0.6,1.4-0.8c0.4-0.2,0.9-0.4,1.4-0.5
                c0.5-0.1,0.9-0.2,1.4-0.3c0.5-0.1,1-0.1,1.5-0.1c2.1,0,3.6,0.4,4.5,1.1c0.8,0.6,1.2,1.5,1.2,2.5c0,0.3-0.1,0.6-0.2,0.9
                s-0.3,0.5-0.5,0.7c0.4,0.3,0.8,0.7,1,1.1c0.2,0.4,0.4,1,0.4,1.6c0,0.6-0.1,1.1-0.4,1.6c-0.3,0.5-0.7,0.9-1.2,1.3
                c-0.5,0.4-1.2,0.7-2,0.8c-0.8,0.2-1.7,0.2-2.7,0.2c-0.6,0-1.2,0-1.8-0.1c-0.5-0.1-1.1-0.2-1.5-0.3c-0.5-0.1-1-0.3-1.4-0.6
                c-0.5-0.2-0.9-0.5-1.4-0.8l1.4-2.2c0.7,0.5,1.4,0.8,2.2,1c0.8,0.2,1.7,0.4,2.6,0.4c0.5,0,0.9,0,1.3-0.1c0.4,0,0.7-0.1,1-0.2
                c0.3-0.1,0.5-0.3,0.6-0.4c0.2-0.2,0.2-0.4,0.2-0.7c0-0.3-0.1-0.5-0.3-0.6c-0.2-0.1-0.5-0.2-1.1-0.2h-4.6v-2.7H293.8L293.8,84.6z
                M303.9,87.6h4l-1.7-4.4h-0.5L303.9,87.6L303.9,87.6z M308.2,80.5l4.8,11.4h-3.2l-0.7-1.7h-6.3l-0.7,1.7h-3.3l4.9-11.4H308.2
                L308.2,80.5z"/>
            </g>
            <path class="st0" d="M856.9,57v1.8h2.4V57h1.3v4.8h-1.3v-1.9h-2.4v1.9h-1.3V57H856.9L856.9,57z M863.3,60h1.7l-0.7-1.9H864
              L863.3,60L863.3,60z M865.1,57l2,4.8h-1.4l-0.3-0.7h-2.7l-0.3,0.7h-1.4l2.1-4.8H865.1L865.1,57z M872.9,57v3.7h0.5v2h-1.1l-0.1-0.9
              h-3.3l-0.1,0.9h-1.1v-2h0.6L869,57H872.9L872.9,57z M869.6,60.7h2v-2.5H870L869.6,60.7L869.6,60.7z M877.3,57c0.2,0,0.4,0,0.6,0.1
              c0.2,0.1,0.3,0.2,0.5,0.3c0.1,0.1,0.2,0.3,0.3,0.4c0.1,0.2,0.1,0.3,0.1,0.5c0,0.2,0,0.3-0.1,0.4c-0.1,0.1-0.1,0.2-0.3,0.3
              c0.2,0.1,0.4,0.3,0.5,0.5c0.1,0.2,0.2,0.4,0.2,0.7c0,0.2,0,0.4-0.1,0.6c-0.1,0.2-0.2,0.3-0.3,0.5c-0.1,0.1-0.3,0.2-0.5,0.3
              c-0.2,0.1-0.4,0.1-0.6,0.1h-3.4V57H877.3L877.3,57z M875.4,58.8h1.8c0.1,0,0.1,0,0.2-0.1c0.1-0.1,0.1-0.1,0.1-0.2
              c0-0.1,0-0.1-0.1-0.2c0-0.1-0.1-0.1-0.2-0.1h-1.8V58.8L875.4,58.8z M875.4,60.7h2.1c0.1,0,0.2,0,0.3-0.1c0.1-0.1,0.1-0.2,0.1-0.3
              c0-0.1,0-0.2-0.1-0.3c-0.1-0.1-0.2-0.1-0.3-0.1h-2V60.7L875.4,60.7z M881.1,57v4.8h-1.3V57H881.1L881.1,57z M884.7,57
              c0.3,0,0.6,0,0.8,0.1c0.2,0.1,0.5,0.2,0.6,0.4c0.2,0.2,0.3,0.4,0.4,0.6c0.1,0.2,0.2,0.5,0.2,0.8c0,0.3-0.1,0.5-0.2,0.8
              c-0.1,0.2-0.2,0.4-0.4,0.6s-0.4,0.3-0.6,0.4c-0.2,0.1-0.5,0.1-0.8,0.1h-1.6v1h-1.3V57H884.7L884.7,57z M883.2,59.6h1.5
              c0.2,0,0.4-0.1,0.6-0.2c0.1-0.1,0.2-0.3,0.2-0.5c0-0.2-0.1-0.4-0.2-0.5c-0.1-0.1-0.3-0.2-0.6-0.2h-1.5V59.6L883.2,59.6z M888.7,57
              v1.8h2.4V57h1.3v4.8h-1.3v-1.9h-2.4v1.9h-1.3V57H888.7L888.7,57z M897.9,61.8h-1.3v-1h-1.5l-0.5,1h-1.4l0.7-1.3
              c-0.3-0.2-0.5-0.4-0.6-0.6c-0.2-0.3-0.3-0.6-0.3-1c0-0.3,0.1-0.5,0.2-0.8c0.1-0.2,0.2-0.4,0.4-0.6c0.2-0.2,0.4-0.3,0.6-0.4
              c0.2-0.1,0.5-0.1,0.8-0.1h2.8V61.8L897.9,61.8z M895.1,58.2c-0.2,0-0.4,0.1-0.6,0.2c-0.1,0.1-0.2,0.3-0.2,0.6
              c0,0.2,0.1,0.4,0.2,0.5c0.1,0.1,0.3,0.2,0.6,0.2h1.5v-1.5H895.1L895.1,58.2z M900,57v1.8h2.4V57h1.3v4.8h-1.3v-1.9H900v1.9h-1.3V57
              H900L900,57z M908.5,58.8c-0.2-0.3-0.4-0.5-0.6-0.6c-0.2-0.1-0.5-0.2-0.9-0.2c-0.4,0-0.8,0.1-1,0.4c-0.3,0.2-0.4,0.6-0.4,1
              c0,0.2,0,0.4,0.1,0.6c0.1,0.2,0.2,0.3,0.3,0.4c0.1,0.1,0.3,0.2,0.4,0.3c0.2,0.1,0.4,0.1,0.6,0.1c0.4,0,0.7-0.1,0.9-0.2
              c0.2-0.1,0.4-0.3,0.6-0.6l1,0.6c-0.2,0.5-0.6,0.8-1,1c-0.4,0.2-0.9,0.3-1.5,0.3c-0.4,0-0.7-0.1-1.1-0.2c-0.3-0.1-0.6-0.3-0.9-0.5
              c-0.2-0.2-0.4-0.5-0.6-0.8c-0.1-0.3-0.2-0.7-0.2-1.1c0-0.4,0.1-0.7,0.2-1c0.1-0.3,0.3-0.6,0.6-0.8c0.2-0.2,0.5-0.4,0.9-0.5
              c0.3-0.1,0.7-0.2,1.1-0.2c1.2,0,2,0.5,2.5,1.4L908.5,58.8L908.5,58.8z M911.5,57v1h1.5c0.3,0,0.6,0,0.8,0.1
              c0.2,0.1,0.5,0.2,0.6,0.4c0.2,0.2,0.3,0.4,0.4,0.6c0.1,0.2,0.2,0.5,0.2,0.8c0,0.3-0.1,0.6-0.2,0.8c-0.1,0.2-0.2,0.4-0.4,0.6
              c-0.2,0.2-0.4,0.3-0.6,0.4c-0.2,0.1-0.5,0.1-0.8,0.1h-2.8V57H911.5L911.5,57z M911.5,60.7h1.4c0.3,0,0.5-0.1,0.6-0.2
              c0.1-0.1,0.2-0.3,0.2-0.6c0-0.3-0.1-0.4-0.2-0.5c-0.1-0.1-0.3-0.2-0.6-0.2h-1.4V60.7L911.5,60.7z M917,57v1.7h1.1l1.2-1.7h1.5
              l-1.5,2.2l1.7,2.6h-1.5l-1.2-1.9H917v1.9h-1.3V57H917L917,57z M922.8,57v3l2.5-3h1.2v4.8h-1.3v-3l-2.5,3h-1.2V57H922.8L922.8,57z
              M928.6,57v3l2.5-3h1.2v4.8h-1.3v-3l-2.5,3h-1.2V57H928.6L928.6,57z M931.3,56c-0.2,0.1-0.3,0.2-0.4,0.3c-0.1,0.1-0.3,0.1-0.4,0.2
              c-0.1,0-0.2,0.1-0.4,0.1c-0.1,0-0.2,0-0.4,0c-0.1,0-0.2,0-0.4,0c-0.1,0-0.2,0-0.4-0.1c-0.1,0-0.2-0.1-0.4-0.2
              c-0.1-0.1-0.3-0.2-0.4-0.3l0.6-0.7c0.1,0.1,0.3,0.2,0.4,0.2c0.1,0,0.3,0.1,0.5,0.1c0.2,0,0.4,0,0.5-0.1c0.1,0,0.3-0.1,0.4-0.2
              L931.3,56L931.3,56z M936.8,57v1.7h1.1l1.2-1.7h1.5l-1.5,2.2l1.7,2.6h-1.5l-1.2-1.9h-1.2v1.9h-1.3V57H936.8L936.8,57z M943.2,60
              h1.7l-0.7-1.9H944L943.2,60L943.2,60z M945,57l2,4.8h-1.4l-0.3-0.7h-2.7l-0.3,0.7h-1.4l2.1-4.8H945L945,57z M950.6,57
              c0.3,0,0.6,0,0.8,0.1c0.2,0.1,0.5,0.2,0.6,0.4c0.2,0.2,0.3,0.4,0.4,0.6c0.1,0.2,0.2,0.5,0.2,0.8c0,0.3-0.1,0.5-0.2,0.8
              c-0.1,0.2-0.2,0.4-0.4,0.6c-0.2,0.2-0.4,0.3-0.6,0.4c-0.2,0.1-0.5,0.1-0.8,0.1H949v1h-1.3V57H950.6L950.6,57z M949,59.6h1.5
              c0.2,0,0.4-0.1,0.6-0.2c0.1-0.1,0.2-0.3,0.2-0.5c0-0.2-0.1-0.4-0.2-0.5c-0.1-0.1-0.3-0.2-0.6-0.2H949V59.6L949,59.6z M958.7,59.9
              h-2.1c0.1,0.3,0.2,0.5,0.5,0.6c0.2,0.1,0.5,0.2,0.9,0.2c0.4,0,0.7-0.1,0.9-0.2c0.2-0.1,0.4-0.3,0.6-0.6l1,0.6c-0.2,0.5-0.6,0.8-1,1
              c-0.4,0.2-0.9,0.3-1.5,0.3c-0.4,0-0.7-0.1-1.1-0.2c-0.3-0.1-0.6-0.3-0.9-0.5c-0.2-0.2-0.4-0.5-0.6-0.8c-0.1-0.3-0.2-0.7-0.2-1.1
              c0-0.4,0.1-0.7,0.2-1c0.1-0.3,0.3-0.6,0.6-0.8c0.2-0.2,0.5-0.4,0.8-0.5c0.3-0.1,0.7-0.2,1.1-0.2c0.6,0,1.1,0.1,1.5,0.3
              c0.4,0.2,0.8,0.6,1,1l-1,0.6c-0.2-0.3-0.4-0.5-0.6-0.6c-0.2-0.1-0.5-0.2-0.9-0.2c-0.3,0-0.6,0.1-0.8,0.2c-0.2,0.1-0.4,0.3-0.5,0.6
              h2.1V59.9L958.7,59.9z M964,57c0.3,0,0.6,0,0.8,0.1c0.2,0.1,0.5,0.2,0.6,0.4c0.2,0.2,0.3,0.4,0.4,0.6c0.1,0.2,0.2,0.5,0.2,0.8
              c0,0.3-0.1,0.5-0.2,0.8s-0.2,0.4-0.4,0.6c-0.2,0.2-0.4,0.3-0.6,0.4c-0.2,0.1-0.5,0.1-0.8,0.1h-1.6v1h-1.3V57H964L964,57z
              M962.4,59.6h1.5c0.2,0,0.4-0.1,0.6-0.2c0.1-0.1,0.2-0.3,0.2-0.5c0-0.2-0.1-0.4-0.2-0.5c-0.1-0.1-0.3-0.2-0.6-0.2h-1.5V59.6
              L962.4,59.6z M953.5,57.9c-0.1-0.1-0.2-0.1-0.2-0.3s-0.1-0.2-0.1-0.3c0-0.2,0.1-0.4,0.2-0.5c0.1-0.1,0.3-0.2,0.5-0.2
              c0.2,0,0.3,0.1,0.5,0.2c0.1,0.1,0.2,0.3,0.2,0.5c0,0.1,0,0.2-0.1,0.2l-0.5,1.1l-0.7-0.1L953.5,57.9L953.5,57.9z"/>
            <path class="st2" d="M874.8,49.3L894,30l0,0l0,0l19.2,19.2h-3.6l-7.2-7.2l-7.2,7.2h-3.6l9-9l-6.6-6.6l-15.6,15.6h0H874.8
              L874.8,49.3L874.8,49.3z M912.6,45l4.8-4.8l-6.6-6.6l-4.8,4.8l-1.8-1.8l6.6-6.6L930,49.3h-3.6l-7.2-7.2l-4.8,4.8L912.6,45L912.6,45
              z M921,36.6l6.6-6.6l19.2,19.2h0h-3.6h0l-15.6-15.6l-4.8,4.8L921,36.6L921,36.6z M895.8,28.2l15-15l15,15L924,30l-13.2-13.2
              L897.6,30L895.8,28.2L895.8,28.2z"/>
            <path class="st0" d="M855.5,78.9V67.5h2.7v4.7l6.3-4.7h3.8l-7.6,5.4l8.5,6H865l-6.8-5v5H855.5L855.5,78.9z M876.4,74.4h5l-2.5-4.6
              L876.4,74.4L876.4,74.4z M871.3,78.9l6.4-11.4h2.6l6.5,11.4h-3l-1.4-2.5h-7.2l-1.3,2.5H871.3L871.3,78.9z M897.6,69.5h-6v3h6
              c0.5,0,0.8-0.1,0.9-0.2c0.2-0.1,0.2-0.4,0.2-0.7v-1.2c0-0.3-0.1-0.6-0.2-0.7C898.4,69.5,898,69.5,897.6,69.5L897.6,69.5z M889,78.9
              V67.5h9.7c0.9,0,1.6,0.2,2,0.5c0.4,0.3,0.6,0.9,0.6,1.7v2.5c0,0.8-0.2,1.3-0.6,1.7c-0.4,0.4-1.1,0.5-2,0.5h-7.1v4.4H889L889,78.9z
              M907.3,78.9v-9.3h7.5v9.3h2.7V67.5h-2.8h-10v2.7v8.7H907.3L907.3,78.9z M925.1,74.4h5l-2.5-4.6L925.1,74.4L925.1,74.4z M920,78.9
              l6.4-11.4h2.6l6.5,11.4h-3l-1.4-2.5h-7.2l-1.3,2.5H920L920,78.9z M944.8,69.5v9.4h-2.7v-9.4H937v-2h13.1v2H944.8L944.8,69.5z
              M966.1,78.9V67.5h-1.8l-8,6.7c-0.3,0.3-0.6,0.5-0.7,0.6c-0.1,0.1-0.3,0.4-0.6,0.6c0-0.3,0-0.5,0.1-0.7c0-0.2,0-0.4,0-0.6
              c0-0.2,0-0.4,0-0.6v-6h-2.4v11.4h1.8l8.4-7c0.2-0.2,0.4-0.3,0.5-0.5c0.2-0.2,0.3-0.3,0.4-0.4c0,0.1,0,0.3,0,0.5c0,0.2,0,0.4,0,0.5
              c0,0.2,0,0.5,0,0.8v6.2H966.1L966.1,78.9z"/>
            <path class="st0" d="M658.5,74.4h7.1l-2.6-6.3h-1.8L658.5,74.4L658.5,74.4z M663.6,67.2l4.2,9.8h-1l-0.7-1.6h-7.9l-0.7,1.6h-1.1
              l4.3-9.8H663.6L663.6,67.2z M675.6,67.2c0.4,0,0.8,0.1,1.2,0.2c0.4,0.1,0.7,0.3,0.9,0.5c0.3,0.2,0.5,0.5,0.6,0.7
              c0.1,0.3,0.2,0.6,0.2,1c0,0.5-0.1,0.9-0.2,1.2c-0.2,0.3-0.4,0.6-0.7,0.8c0.5,0.2,0.9,0.5,1.2,0.9c0.3,0.4,0.5,0.9,0.5,1.5
              c0,0.4-0.1,0.8-0.2,1.1c-0.1,0.4-0.4,0.7-0.6,0.9c-0.3,0.3-0.6,0.5-1,0.6c-0.4,0.2-0.9,0.2-1.4,0.2h-6.5v-9.8H675.6L675.6,67.2z
              M670.5,71.3h5.4c0.6,0,1-0.2,1.2-0.5c0.3-0.3,0.4-0.7,0.4-1.1c0-0.5-0.1-0.9-0.4-1.2c-0.3-0.3-0.8-0.5-1.6-0.5h-5V71.3L670.5,71.3
              z M670.5,76h5.4c0.8,0,1.4-0.2,1.8-0.6c0.4-0.4,0.6-0.9,0.6-1.4c0-0.6-0.2-1.1-0.5-1.4c-0.4-0.3-0.8-0.5-1.4-0.5h-5.8V76L670.5,76z
              M690,67.2v0.9h-4.5v8.8h-1v-8.8H680v-0.9H690L690,67.2z M691.9,72.1c0,0.7,0.1,1.3,0.3,1.8c0.2,0.5,0.5,1,0.9,1.3
              c0.4,0.4,0.9,0.6,1.4,0.8c0.5,0.2,1.1,0.3,1.7,0.3c0.6,0,1.2-0.1,1.7-0.3c0.5-0.2,1-0.5,1.4-0.8c0.4-0.4,0.7-0.8,0.9-1.3
              c0.2-0.5,0.3-1.1,0.3-1.8s-0.1-1.3-0.3-1.8c-0.2-0.5-0.5-1-0.9-1.3c-0.4-0.4-0.9-0.6-1.4-0.8c-0.5-0.2-1.1-0.3-1.7-0.3
              c-0.6,0-1.2,0.1-1.7,0.3c-0.5,0.2-1,0.5-1.4,0.8c-0.4,0.4-0.7,0.8-0.9,1.3C692,70.8,691.9,71.4,691.9,72.1L691.9,72.1z M701.8,72.1
              c0,0.8-0.1,1.5-0.4,2.1c-0.3,0.6-0.6,1.2-1.1,1.6c-0.5,0.4-1.1,0.8-1.7,1c-0.7,0.2-1.4,0.4-2.2,0.4c-0.8,0-1.5-0.1-2.2-0.4
              c-0.7-0.2-1.2-0.6-1.7-1c-0.5-0.4-0.9-1-1.1-1.6c-0.3-0.6-0.4-1.3-0.4-2.1c0-0.8,0.1-1.5,0.4-2.1c0.3-0.6,0.6-1.2,1.1-1.6
              c0.5-0.4,1.1-0.8,1.7-1c0.7-0.2,1.4-0.4,2.2-0.4c0.8,0,1.5,0.1,2.2,0.4c0.7,0.2,1.2,0.6,1.7,1c0.5,0.4,0.9,1,1.1,1.6
              C701.6,70.6,701.8,71.3,701.8,72.1L701.8,72.1z M711.6,67.2v0.9h-7.1v2.7h5.1c0.5,0,0.9,0.1,1.3,0.2c0.4,0.1,0.7,0.3,1,0.6
              c0.3,0.3,0.5,0.6,0.7,1c0.2,0.4,0.3,0.8,0.3,1.2c0,0.4-0.1,0.8-0.3,1.2c-0.2,0.4-0.4,0.7-0.7,1c-0.3,0.3-0.6,0.5-1,0.7
              c-0.4,0.2-0.8,0.2-1.3,0.2h-6.1v-9.8H711.6L711.6,67.2z M704.5,76h4.9c0.4,0,0.8-0.1,1.1-0.2c0.3-0.1,0.6-0.3,0.8-0.5
              c0.2-0.2,0.4-0.4,0.5-0.7c0.1-0.3,0.1-0.6,0.1-0.9c0-0.6-0.2-1.1-0.6-1.5c-0.4-0.4-1-0.6-1.9-0.6h-4.9V76L704.5,76z M716.1,74.4
              h7.1l-2.6-6.3h-1.8L716.1,74.4L716.1,74.4z M721.2,67.2l4.2,9.8h-1l-0.7-1.6h-7.9l-0.7,1.6h-1.1l4.3-9.8H721.2L721.2,67.2z
              M733,71.1c0.6,0,1-0.1,1.4-0.3c0.3-0.2,0.5-0.6,0.5-1.1c0-0.6-0.3-1.1-0.9-1.4c-0.6-0.3-1.5-0.5-2.8-0.5c-0.8,0-1.5,0.1-2.1,0.3
              c-0.6,0.2-1.3,0.4-1.9,0.8l-0.4-0.8c0.7-0.4,1.5-0.7,2.2-0.9c0.7-0.2,1.5-0.3,2.3-0.3c0.5,0,1,0,1.6,0.1c0.6,0.1,1.1,0.2,1.6,0.5
              c0.4,0.2,0.8,0.5,1,0.8c0.3,0.3,0.4,0.8,0.4,1.3c0,0.5-0.1,0.8-0.3,1.1c-0.2,0.3-0.5,0.5-0.9,0.7c0.6,0.1,1.1,0.4,1.4,0.9
              c0.3,0.4,0.5,1,0.5,1.5c0,0.5-0.1,0.9-0.3,1.3c-0.2,0.4-0.5,0.7-0.9,1c-0.5,0.3-1.1,0.6-1.8,0.8c-0.7,0.2-1.5,0.3-2.4,0.3
              c-0.9,0-1.8-0.1-2.6-0.3c-0.8-0.2-1.5-0.5-2.3-0.9l0.5-0.8c0.4,0.2,0.7,0.4,1.1,0.5c0.3,0.1,0.7,0.3,1.1,0.4
              c0.4,0.1,0.7,0.2,1.1,0.2c0.4,0,0.8,0.1,1.3,0.1c0.6,0,1.2-0.1,1.8-0.2c0.5-0.1,1-0.3,1.4-0.5c0.4-0.2,0.7-0.5,0.9-0.8
              c0.2-0.3,0.3-0.6,0.3-1c0-0.6-0.2-1-0.5-1.3c-0.4-0.3-1-0.5-1.8-0.5h-3.7v-0.9H733L733,71.1z M739.5,74.4h7.1l-2.6-6.3h-1.8
              L739.5,74.4L739.5,74.4z M744.6,67.2l4.2,9.8h-1l-0.7-1.6h-7.9l-0.7,1.6h-1.1l4.3-9.8H744.6L744.6,67.2z"/>
            <path class="st0" d="M665.2,81.5V84h-6.3v0.8h3.9c0.5,0,1,0.1,1.5,0.3c0.5,0.2,0.8,0.4,1.2,0.7c0.3,0.3,0.6,0.7,0.8,1.1
              c0.2,0.4,0.3,0.9,0.3,1.4c0,0.5-0.1,0.9-0.3,1.4c-0.2,0.4-0.4,0.8-0.8,1.1c-0.3,0.3-0.7,0.6-1.2,0.8c-0.5,0.2-1,0.3-1.5,0.3h-6.7
              V81.5H665.2L665.2,81.5z M658.9,89.4h3.7c0.4,0,0.7-0.1,0.9-0.3s0.2-0.5,0.2-0.8c0-0.3-0.1-0.5-0.2-0.7c-0.2-0.2-0.5-0.3-0.9-0.3
              h-3.7V89.4L658.9,89.4z M685.9,81.5V84h-6.8v1.4h6.1v2.5h-6.1v1.5h7v2.5h-9.8V81.5H685.9L685.9,81.5z M706.9,81.5V84h-4v7.9h-2.8
              V84h-4v-2.5H706.9L706.9,81.5z M719.2,86.7c0,0.5,0.1,0.9,0.2,1.3c0.2,0.4,0.4,0.7,0.7,1c0.3,0.3,0.6,0.5,1,0.6
              c0.4,0.1,0.8,0.2,1.2,0.2c0.4,0,0.8-0.1,1.2-0.2c0.4-0.1,0.7-0.3,1-0.6c0.3-0.3,0.5-0.6,0.6-1c0.2-0.4,0.2-0.8,0.2-1.3
              c0-0.5-0.1-0.9-0.2-1.3c-0.2-0.4-0.4-0.7-0.6-1c-0.3-0.3-0.6-0.5-1-0.6c-0.4-0.1-0.8-0.2-1.2-0.2c-0.4,0-0.8,0.1-1.2,0.2
              s-0.7,0.3-1,0.6c-0.3,0.3-0.5,0.6-0.7,1C719.3,85.8,719.2,86.2,719.2,86.7L719.2,86.7z M728.1,86.7c0,0.8-0.2,1.6-0.5,2.2
              c-0.3,0.7-0.7,1.2-1.3,1.7c-0.5,0.5-1.1,0.8-1.9,1.1c-0.7,0.3-1.4,0.4-2.2,0.4c-0.8,0-1.5-0.1-2.2-0.4c-0.7-0.3-1.3-0.6-1.9-1.1
              c-0.5-0.5-1-1-1.3-1.7c-0.3-0.7-0.5-1.4-0.5-2.2s0.2-1.6,0.5-2.2c0.3-0.7,0.7-1.2,1.3-1.7c0.5-0.5,1.1-0.8,1.9-1.1
              c0.7-0.3,1.4-0.4,2.2-0.4c0.8,0,1.5,0.1,2.2,0.4c0.7,0.3,1.3,0.6,1.9,1.1c0.5,0.5,1,1,1.3,1.7C727.9,85.1,728.1,85.9,728.1,86.7
              L728.1,86.7z M741,81.5v3.8h5.1v-3.8h2.8v10.4h-2.8v-4.1H741v4.1h-2.8V81.5H741L741,81.5z"/>
            <path class="st2" d="M704.6,0.6l21,12.1c1.3,0.8,2.1,2.1,2.1,3.7v24.2c0,1.5-0.8,2.9-2.1,3.7l-21,12.1c-1.3,0.8-2.9,0.8-4.2,0
              l-21-12.1c-1.3-0.8-2.1-2.1-2.1-3.7V16.4c0-1.5,0.8-2.9,2.1-3.7l21-12.1C701.7-0.1,703.3-0.1,704.6,0.6L704.6,0.6z M703.6,2.5
              l21,12.1c0.7,0.4,1.1,1.1,1.1,1.8v24.2c0,0.8-0.4,1.4-1.1,1.8l-21,12.1c-0.7,0.4-1.4,0.4-2.1,0l-21-12.1c-0.7-0.4-1.1-1.1-1.1-1.8
              V16.4c0-0.8,0.4-1.4,1.1-1.8l21-12.1C702.1,2.1,702.9,2.1,703.6,2.5L703.6,2.5z"/>
            <path class="st2" d="M702.5,52.4c0.3,0,0.6-0.1,0.9-0.3l3.8-2.2l-4.7-2.7V52.4L702.5,52.4z M702.5,44.2v-5.5l12.2,7l-4.8,2.8
              L702.5,44.2L702.5,44.2z M702.5,35.6v-5.5l19.6,11.3l-4.8,2.8L702.5,35.6L702.5,35.6z M702.5,27v-5.5l20.9,12.1v5.5L702.5,27
              L702.5,27z M702.5,18.4v-5.5L723.4,25v5.5L702.5,18.4L702.5,18.4z M702.5,9.9V4.6c0.3,0,0.6,0.1,0.8,0.2l19.2,11.1
              c0.6,0.4,0.9,0.9,0.9,1.6v4.4L702.5,9.9L702.5,9.9z"/>
            <path class="st2" d="M697.7,50l-10.1-5.8l14.9-8.6v3.1l-12.2,7.1l4.8,2.8l7.5-4.3v3.1L697.7,50L697.7,50z M682.9,41.4l-0.4-0.2
              c-0.6-0.4-1-1-1-1.7v-0.4l21-12.1V30L682.9,41.4L682.9,41.4z M681.5,33.6v-3.1l21-12.1v3.1L681.5,33.6L681.5,33.6z M681.5,25v-3.1
              l21-12.1v3.1L681.5,25L681.5,25z M682.4,15.9C682.5,15.9,682.5,15.9,682.4,15.9l19.1-11c0,0,0.1,0,0.1,0L682.4,15.9L682.4,15.9z"/>
            <path class="st2" d="M421.6,30.2h-9.4c1.5,0,3,1.3,3.5,2.3l13,29.1h2.1l1.6-3.9c2.2,3,6.3,4.4,11.3,4.3c6.8-0.2,10.6-4.3,9.7-11.4
              c-0.3-2.9-2.8-5.8-7-7.3c-5.4-1.9-7.7-2.8-6.8-5.5c0.9-2.7,6.1-1.7,10,1l3.6-5.2c-2.4-2.1-5.6-3.4-10.1-3.4
              c-6.4,0-13.9,0.3-18.4,5.6c-0.1,0.2-0.3,0.3-0.4,0.5L421.6,30.2L421.6,30.2z M448.2,48.1c-8.4-7.3-16.6,3.1-18.8,9.6
              c3.1-3.9,20.2,6.3,19.7-7.8c-4.4-1.4-9.7-0.7-15.3,3C439,48,445,46.7,448.2,48.1L448.2,48.1z M423.3,46.1
              c-2.7-12.4,10.7-15.7,18.2-15c-5.2,1.5-3.8,22.3-17,17.3c0.9-5.7,4.5-10.4,10.7-14.5C428.9,36.6,424.2,40.4,423.3,46.1L423.3,46.1z
              M431.4,52c0.4-0.6,0.8-1.1,1.2-1.6c1.2-1.5,2.6-2.9,4.3-3.9c-0.6-0.5-1.1-0.9-1.5-1.4c-0.8,1.5-1.9,2.9-3.3,3.7
              c-0.6,0.4-1.2,0.6-1.8,0.8L431.4,52L431.4,52z"/>
            <path class="st0" d="M471.9,45.4c-3.8,0-6.3,0-10,0c0,5.3,0,10.7,0,16c3.7,0,6.5,0,10.2,0c0-1.2,0-2.5,0-3.6c-2.4,0-3.8,0-6.1,0
              c0-1,0-1.9,0-2.8h5.5c0-1.2,0-2.4,0-3.6h-5.5V49c2.4,0,3.6,0,5.9,0C471.9,47.8,471.9,46.6,471.9,45.4L471.9,45.4z M487.9,61.4h1.5
              v-16c-1.4,0-2.8,0-4.2,0v7.8l-8.1-7.9h-1.5v16.1c1.4,0,2.8,0,4.2,0v-7.9L487.9,61.4L487.9,61.4z M503.5,45.4c-3.8,0-6.3,0-10,0
              c0,5.3,0,10.7,0,16c3.7,0,6.5,0,10.2,0c0-1.2,0-2.5,0-3.6c-2.4,0-3.8,0-6.1,0c0-1,0-1.9,0-2.8h5.5c0-1.2,0-2.4,0-3.6h-5.5V49
              c2.4,0,3.6,0,5.9,0C503.5,47.8,503.5,46.6,503.5,45.4L503.5,45.4z M517.6,55.7c4.1-2.8,2.9-10.3-3.4-10.4c-2.3,0-4.7,0-7,0
              c0,5.4,0,10.7,0,16c1.3,0,2.7,0,4.1,0v-4.7h2.1l2.8,4.7h4.6v-0.6L517.6,55.7L517.6,55.7z M514.3,53.1h-2.9c0-1.3,0-2.7,0-4
              c1,0,2,0,2.9,0C516.6,49.1,516.5,53.1,514.3,53.1L514.3,53.1z M522.3,53.4c0,5.5,4.1,8.2,8.2,8.2c3,0,6-1.3,7.2-4.6
              c0.6-1.6,0.6-3.1,0.5-4.7h-7.6v3.6h3.4c-0.7,1.5-1.8,2-3.4,2c-2.4,0-4-1.7-4-4.4c0-2.5,1.4-4.5,4-4.5c1.6,0,2.7,0.6,3.3,1.9h4
              c-0.8-4-4.1-5.7-7.4-5.7C526.4,45.2,522.3,47.9,522.3,53.4L522.3,53.4z M548.4,54.7l5.4-8.7v-0.6h-4.4l-2.9,5.3h-0.2l-2.9-5.3H539
              V46l5.4,8.7v6.7h4.1V54.7L548.4,54.7z"/>
          </g>
          </svg>